<svg id="Layer_1" data-name="Layer 1" xmlns="http://www.w3.org/2000/svg" viewBox="0 0 296.3 249.12">
<defs>
<style>
    .cls-1{
        fill:none;
        stroke:#000;
        stroke-miterlimit:10;
    }
</style>
</defs>
<title>airplane</title>

<line class="cls-1" x1="295.8" y1="75.48" x2="295.8" y2="76.07"/><line class="cls-1" x1="131.47" y1="93.89" x2="61.14" y2="157.79"/><line class="cls-1" x1="166.64" y1="125.84" x2="96.3" y2="189.74"/><line class="cls-1" x1="166.64" y1="125.84" x2="201.85" y2="209.31"/><path class="cls-1" d="M211.08,297.06" transform="translate(-79.77 -203.88)"/><path class="cls-1" d="M173.39,224.56" transform="translate(-79.77 -203.88)"/><line class="cls-1" x1="201.85" y1="209.31" x2="211.03" y2="167.58"/><line class="cls-1" x1="211.03" y1="167.58" x2="202.31" y2="99.38"/><line class="cls-1" x1="202.31" y1="99.38" x2="247.27" y2="51.23"/><path class="cls-1" d="M327,255.11c16.71-14.2,14.76-37.05,2.37-46.08-10.45-7.62-29.39-6.15-41.78,6.47" transform="translate(-79.77 -203.88)"/><line class="cls-1" x1="207.86" y1="11.62" x2="157.97" y2="56.93"/><line class="cls-1" x1="96.3" y1="189.74" x2="104.38" y2="222.68"/><line class="cls-1" x1="65.14" y1="188.44" x2="81.85" y2="248.8"/><line class="cls-1" x1="96.3" y1="28.37" x2="158.69" y2="55.45"/><line class="cls-1" x1="58.81" y1="31.25" x2="132.02" y2="95.09"/><line class="cls-1" x1="58.81" y1="31.25" x2="96.3" y2="28.37"/><line class="cls-1" x1="81.85" y1="248.8" x2="104.38" y2="222.68"/><line class="cls-1" x1="61.91" y1="157.11" x2="25.42" y2="154.04"/><line class="cls-1" x1="65.14" y1="188.44" x2="0.33" y2="175.92"/><line class="cls-1" x1="25.42" y1="154.04" x2="0.33" y2="175.92"/>
</svg>