<svg id="Layer_1" data-name="Layer 1" xmlns="http://www.w3.org/2000/svg" viewBox="0 0 155.35 124.91"><defs><style>.cls-1{fill:#fff;stroke:#000;stroke-miterlimit:10;}</style></defs><title>cloud</title><path class="cls-1" d="M206.74,150.35c0,20.05-22,36.3-49.13,36.3-21.38,0-39.56-10.08-46.32-24.16a41.2,41.2,0,0,1-21.51,5.9c-20.65,0-37.39-14.5-37.39-32.39,0-9.22,4.44-17.53,11.57-23.42a30.88,30.88,0,0,1-4.18-15.49c0-19,17.42-34.35,38.92-34.35,14.61,0,27.34,7.11,34,17.62A48.81,48.81,0,0,1,160,72.3c23.89,0,43.26,16.06,43.26,35.87a31.51,31.51,0,0,1-7.09,19.68C202.79,134,206.74,141.85,206.74,150.35Z" transform="translate(-51.89 -62.24)"/></svg>