<svg id="Layer_1" data-name="Layer 1" xmlns="http://www.w3.org/2000/svg" viewBox="0 0 152.74 154.68"><defs><style>.cls-1{fill:#F95E5D;stroke:#000;stroke-miterlimit:10;}</style></defs><title>flower</title><path class="cls-1" d="M163.55,110.24a73.82,73.82,0,0,1-3,21.55,21.28,21.28,0,0,0-12.88-5.11c-.35,0-.7,0-1.06,0-.66,0-1.32,0-2,.09a21.28,21.28,0,0,0-12,5.06,73.89,73.89,0,0,1-3-21.56c0-.17,0-.35,0-.52C129.77,89,137.31,72.3,146.6,72.3c9,0,16.32,15.62,16.91,35.37C163.54,108.52,163.55,109.37,163.55,110.24Z" transform="translate(-69.65 -71.8)"/><path class="cls-1" d="M163,188c0,21-7.6,37.94-17,37.94-8.87,0-16.14-15.22-16.89-34.61,0-1.09-.07-2.21-.07-3.33a71.78,71.78,0,0,1,3.64-23.45,21.22,21.22,0,0,0,11.19,4.93,20.22,20.22,0,0,0,2.71.18,19.34,19.34,0,0,0,2.3-.13,21.36,21.36,0,0,0,10.7-4.25A72.13,72.13,0,0,1,163,186.38C163,186.93,163,187.48,163,188Z" transform="translate(-69.65 -71.8)"/><path class="cls-1" d="M125.18,150.33A21.36,21.36,0,0,0,130,161.88a74,74,0,0,1-21.78,3.25h-.61c-20.67,0-37.38-7.38-37.46-16.66s16.44-16.9,37-17.24H108a73.37,73.37,0,0,1,22.25,3,21.13,21.13,0,0,0-5,11.46,20.06,20.06,0,0,0-.15,2.46C125.07,148.9,125.11,149.62,125.18,150.33Z" transform="translate(-69.65 -71.8)"/><path class="cls-1" d="M221.89,147.87c.07,9.35-16.78,17.06-37.67,17.26h-.13a74.42,74.42,0,0,1-21.33-2.76,21.36,21.36,0,0,0,4.79-9.25,21.77,21.77,0,0,0,.57-5q0-.76-.06-1.53A21.39,21.39,0,0,0,163,134.19a74.69,74.69,0,0,1,20.87-3c.65,0,1.29,0,1.93,0C205.81,131.52,221.81,138.8,221.89,147.87Z" transform="translate(-69.65 -71.8)"/><path class="cls-1" d="M168.12,148.17a21.77,21.77,0,0,1-.57,5,21.36,21.36,0,0,1-4.79,9.25,20.54,20.54,0,0,1-3.16,2.95,21.36,21.36,0,0,1-10.7,4.25,19.34,19.34,0,0,1-2.3.13,20.22,20.22,0,0,1-2.71-.18,21.22,21.22,0,0,1-11.19-4.93,20.34,20.34,0,0,1-2.7-2.71,21.36,21.36,0,0,1-4.82-11.55c-.07-.71-.11-1.43-.11-2.16a20.06,20.06,0,0,1,.15-2.46,21.13,21.13,0,0,1,5-11.46,18.9,18.9,0,0,1,2.45-2.45,21.28,21.28,0,0,1,12-5.06c.64-.06,1.3-.09,2-.09.36,0,.71,0,1.06,0a21.28,21.28,0,0,1,12.88,5.11,20.23,20.23,0,0,1,2.41,2.4,21.39,21.39,0,0,1,5.11,12.45Q168.12,147.41,168.12,148.17Z" transform="translate(-69.65 -71.8)"/><path class="cls-1" d="M132.65,131.8a18.9,18.9,0,0,0-2.45,2.45,73.37,73.37,0,0,0-22.25-3h-.77c-7.5-11.24-9.83-22-4.94-26.84s16-2.47,27.41,5.33c0,.17,0,.35,0,.52A73.89,73.89,0,0,0,132.65,131.8Z" transform="translate(-69.65 -71.8)"/><path class="cls-1" d="M188,190.14c-4.61,4.61-14.46,2.79-25-3.76a72.13,72.13,0,0,0-3.37-21.06,20.54,20.54,0,0,0,3.16-2.95,74.42,74.42,0,0,0,21.33,2.76h.13C190.77,175.68,192.59,185.53,188,190.14Z" transform="translate(-69.65 -71.8)"/><path class="cls-1" d="M185.75,131.23c-.64,0-1.28,0-1.93,0a74.69,74.69,0,0,0-20.87,3,20.23,20.23,0,0,0-2.41-2.4,73.82,73.82,0,0,0,3-21.55c0-.87,0-1.72,0-2.57,9.16-5.92,18.09-7.5,23.16-3.22C192.3,109.21,191.58,119.9,185.75,131.23Z" transform="translate(-69.65 -71.8)"/><path class="cls-1" d="M129.06,188c0,1.12,0,2.24.07,3.33-9.59,6.59-19.12,8.53-24.41,4-6.22-5.25-4.7-17.72,2.89-30.29h.61A74,74,0,0,0,130,161.88a20.34,20.34,0,0,0,2.7,2.71A71.78,71.78,0,0,0,129.06,188Z" transform="translate(-69.65 -71.8)"/></svg>