<svg id="Layer_1" data-name="Layer 1" xmlns="http://www.w3.org/2000/svg" viewBox="0 0 300.9 190.43">
<defs>
<style>
    path{
        fill: #fff;
    }
</style>
</defs>
<title>ly-answer-logo</title>
<path d="M-3.33,95.42c21.47-13.06,47.76-23.3,72.67-13.87C81,86,91.19,94.59,95.58,106.46c4.24,11.48,3.35,24.53-.55,36s-11.36,22-21.74,28.49c-5.06,3.15-11.24,5.53-17.27,4.1-5.69-1.35-10-5.85-9.34-11.89,1.26-12.43,15.64-15.18,25.79-14.67a110.11,110.11,0,0,1,32.45,7.19,111.69,111.69,0,0,1,54.19,43.29,113,113,0,0,1,14.74,33,98.92,98.92,0,0,1,3,17.52c.36,4.65.26,9-4.68,10.88-6.41,2.48-14.66.64-21.05-1a108.51,108.51,0,0,1-29.87-13.42,131.48,131.48,0,0,1-46.37-50.73,133,133,0,0,1-12.42-36.65C60.32,147,59,133.11,66.1,123c11-15.84,34.5-15.89,49.63-6.64,18.17,11.12,29,32.08,32.27,52.64,1.61,9.94,2.24,23.3-6.46,30.32-2,1.59-4.56,3.67-7.09-.33a9.85,9.85,0,0,1-.73-3.08c-.6-2.72-1.11-5.47-1.59-8.21a96.92,96.92,0,0,1-1.61-19.82c.84-22.3,13.45-41.31,31.11-54.25,16.65-12.19,41.75-24.36,61.65-12.49,22.29,13.3,17.07,48.49,10.63,69.15a125.6,125.6,0,0,1-37.23,56.55c-18.36,16.08-41,26.93-64.67,32.57-9.18,2.19-21.15,5.59-30,.69-12.12-6.72-9.24-23.55-.49-31.64,9.1-8.43,22-9.87,33.82-10.38,13.79-.6,27.61-.77,41.4-1.1a183.22,183.22,0,0,1,40.56,3.21c13.24,2.68,26.17,6.64,39.09,10.53,12.26,3.7,24.53,7.31,37.08,9.91,1.88.39,2.69-2.51.8-2.9-31.49-6.51-61.44-20-93.64-23-16.44-1.55-33-.51-49.5-.14-13.63.31-28.44-.37-41.26,5.09-10.27,4.37-18.61,13.26-19,24.88A19.64,19.64,0,0,0,108,265.06c11.26,1.63,24-2.24,34.64-5.47A157.74,157.74,0,0,0,181,242.21c22.86-14.43,41.39-35.3,51.88-60.3A116.28,116.28,0,0,0,242,141c.42-12-.71-25.53-8.59-35.24-16.57-20.4-45.85-11.88-64.86-.38-20.13,12.18-36.69,30.75-40.26,54.67a77.29,77.29,0,0,0-.25,19.52c.68,6.51,1.3,14,3.55,20.14,4,10.94,15.27-.12,17.88-6.23,4.27-10,2.56-22.08,0-32.3a85.6,85.6,0,0,0-15.11-31.89c-12.91-16.68-34.07-27.54-55-19.82C71,112.6,63.93,118.66,60.52,127c-5.08,12.48-2.31,27.37.74,40a134.22,134.22,0,0,0,43.6,70.5,126.11,126.11,0,0,0,35.32,21.26c8.06,3.16,16.86,5.7,25.6,5.53,6.41-.12,13.33-2.37,14.21-9.61.71-5.94-.85-13-2.09-18.75a110,110,0,0,0-6.1-19.42,115.36,115.36,0,0,0-53.45-58.22,123.33,123.33,0,0,0-36.73-11.85c-10.47-1.7-24-2.59-32.34,5.35-5.81,5.52-8.05,15.35-2.09,21.62,7.89,8.29,20.61,4.8,28.91-.79,20.69-13.93,31.25-44.21,22.08-67.75C88.33,79.64,58.37,71.39,33.85,76.43,20,79.28,7.14,85.54-4.84,92.83c-1.65,1-.14,3.6,1.51,2.59Z" transform="translate(5.55 -75.02)"/>
</svg>