<svg id="Layer_1" data-name="Layer 1" xmlns="http://www.w3.org/2000/svg" viewBox="0 0 224.04 223.83"><defs><style>.cls-1{fill:#fff;stroke:#000;stroke-miterlimit:10;}</style></defs><title>magic-shop</title><rect class="cls-1" x="22.77" y="100.4" width="180.87" height="122.92"/><rect class="cls-1" x="88.14" y="161.86" width="40.43" height="61.46"/><rect class="cls-1" x="0.7" y="62.27" width="222.65" height="57.39"/><polygon class="cls-1" points="223.36 62.5 0.7 64.44 22.77 0.5 203.64 0.5 223.36 62.5"/><path d="M38.09,161.05c3.87-.48,5-3.7,5.51-7.21,1.28-8.38,1.94-16.9,2.91-25.32l-2.79.76a94.66,94.66,0,0,1,7.72,15.88,1.5,1.5,0,0,0,2.94-.4l.35-7.95c.06-1.41-.7-5,1.91-4.26,1.93.53,2.72,8,3,9.61.81,5.58,1.32,11,5.29,15.3a1.52,1.52,0,0,0,2.5-.66A22.88,22.88,0,0,1,82.86,143a1.51,1.51,0,0,0,0-2.89c-7.22-2.74-14.61,4.76-10.22,11.74,1.55,2.45,4.93,4.65,7.93,3.56,4.3-1.57,4.11-9.54,4.76-13.13l-2.74.36c1.8,2.67,4.61,9.72,8.81,9.36,1.67-.14,2.45-1.37,3.56-2.42,3.33-3.14,6.55-4.62,11.15-4.36v-3c-3.46.29-7.45.68-9.78,3.59-1.73,2.17-2.31,5.42-.48,7.71,1.57,2,4.29,2.25,6.55,1.47,3.95-1.38,5.28-5.64,6.24-9.27l-2.74.36A23.72,23.72,0,0,1,109.21,158a11.68,11.68,0,0,1-.49,3.85l-5.4.36c-1.86-1.44,3.8-5.83,4.58-6.38,4.67-3.29,8.14-6.21,9.53-12l-2.94-.4a13.58,13.58,0,0,0,3.81,9.83,1.51,1.51,0,0,0,2.35-.3,18.3,18.3,0,0,1,12-9c1.55-.37,1.31-2.42,0-2.89-8.17-3-11.17,8.17-5.2,12.72,5.65,4.31,16.17,1.91,14.37-6.6-.4-1.89-3.29-1.09-2.89.8,1.26,5.95-6,5.47-8.55,4.14l-1.81-1.29q-4.38-4.32,3.29-6.88v-2.89a21.11,21.11,0,0,0-13.83,10.41l2.36-.3a10.45,10.45,0,0,1-2.93-7.71,1.51,1.51,0,0,0-2.95-.4c-1.29,5.37-4.63,7.65-8.79,10.63a13.22,13.22,0,0,0-4.67,4.9c-1.4,3-1,7.72,2.45,9.26,3.85,1.74,7-1.84,8.08-5.19,1.87-5.92-.24-12.84-3.12-18.05a1.52,1.52,0,0,0-2.74.36c-.24,1-.53,2-.86,3q-1,5.47-4.28,1.82-5.3-1.78,1.1-3.87a21.85,21.85,0,0,1,4.4-.65,1.5,1.5,0,0,0,0-3,16.36,16.36,0,0,0-10.76,3c-.89.64-2.36,2.94-3.29,3.19-2.81.75-5.62-5.37-6.88-7.24-.66-1-2.5-1-2.75.36-.33,1.87-.67,3.73-1.05,5.59-.59,2.93.21,3.8-3.46,3.49q-2.69,1-3.09-1.19-1.38-2.47.73-5.21c1.59-1.84,4.43-1.95,6.51-1.16v-2.89A26,26,0,0,0,64.5,156l2.51-.66c-6.4-7-1.81-19.18-8.81-25.64-7.76-7.15-6.7,12.38-6.82,15.06l2.95-.4a99.07,99.07,0,0,0-8-16.59,1.52,1.52,0,0,0-2.8.75l-1.68,14.61c-.31,2.66,0,14.46-3.74,14.92-1.89.24-1.92,3.24,0,3Z" transform="translate(-32.51 -49.6)"/><path d="M116.3,136.41a1.5,1.5,0,0,0,0-3,1.5,1.5,0,0,0,0,3Z" transform="translate(-32.51 -49.6)"/><path d="M167,126a9.9,9.9,0,0,0-10.8,2.49c-2.36,2.61-4,8.53-2.95,12s6,3.53,9,3.4c4-.17,10.1-1.87,11.68,3.13a7.25,7.25,0,0,1-2.93,8.7c-1.66,1.15-9.33,5.7-9-1.12.09-1.93-2.91-1.93-3,0-.56,11.76,20,5,18.65-5.07-.6-4.5-2.88-9.2-7.89-9.56-3.72-.26-8,2.17-11.63.62-3-1.27-2.16-4.87-1.22-7.36,1.57-4.13,5.2-5.7,9.28-4.31,1.83.63,2.62-2.27.8-2.89Z" transform="translate(-32.51 -49.6)"/><path d="M178.55,161.43c7.83-4.36,12.26-12.11,14.44-20.6,1.33-5.15,5.81-19.55-2-22.06-7.43-2.41-7.9,9.93-8.09,14.15a67.31,67.31,0,0,0,5.91,30.28c.72,1.61,3.1.42,2.74-1.16a15.27,15.27,0,0,1,3-13.23H192l5.51,11.71a1.5,1.5,0,0,0,2.59,0A29.49,29.49,0,0,1,215,145.32c1.46-.68.59-2.71-.76-2.8-8.86-.58-13.15,11.69-4,15.09,7.86,2.93,12.95-7.12,7.45-12.6l-1.82,2.35c8.79,5,14.55-4.65,17.11-11.63H230a65,65,0,0,1,3.64,15.75c.09.93,1,6.85.24,7.37-2.3,1.65-2.87-4.1-3.11-5.16-1.12-5.06-1.66-10.76,1.37-15.32a10,10,0,0,1,3.36-3.23q7.49-1,5.83,4.77a8,8,0,0,1-6.28,5.65c-1.88.42-1.08,3.32.8,2.89,6-1.37,12.83-10.63,6.41-15.79-7.17-5.75-14.41,5.28-15.21,11.27-.49,3.68.32,22.11,7.36,19.58,3.59-1.29,2.54-7.47,2.37-10.19a66.9,66.9,0,0,0-3.89-18.39,1.51,1.51,0,0,0-2.89,0c-1.83,5-5.82,13.76-12.71,9.84a1.51,1.51,0,0,0-1.81,2.36c2.93,2.92,1.17,9-3.75,7.67-5.82-1.59-3.17-9.65,2.46-9.28l-.75-2.79a31.93,31.93,0,0,0-16,16.28h2.59l-5.51-11.71c-.54-1.14-2-.8-2.59,0a18.16,18.16,0,0,0-3.3,15.54l2.74-1.16a63.86,63.86,0,0,1-5.29-19.85,63.1,63.1,0,0,1-.21-8.91,42.62,42.62,0,0,1,.68-6.7c.61-2.86,0-4,3.35-1.86,2.8,1.76,2.41,1.5,2.11,4.31-.21,2-.51,4-.85,6a55.54,55.54,0,0,1-2.17,8.9c-2.24,6.41-6,11.94-12,15.29-1.69.94-.17,3.54,1.51,2.59Z" transform="translate(-32.51 -49.6)"/></svg>