<svg id="Layer_1" data-name="Layer 1" xmlns="http://www.w3.org/2000/svg" viewBox="0 0 315.02 305.73"><defs><style>.cls-1{fill:#fff;}.cls-1,.cls-2{stroke:#000;stroke-miterlimit:10;}.cls-2{fill:none;}</style></defs><title>snowflake</title><path class="cls-1" d="M370.9,312.74,350,322.57l-45.81-29.8-3.77-2.45-.27.09-5.78-3.76,5.12-4.12.17.16,48.18-38.76,30.84,5.88,48.34-15-56.16-9.44,25.05-20.15-16.36-20.32-30.32,24.4-5.69-58.19-17.09,35.38,3.48,38.33L289,257.8l-3.21,2.58-.51-54.48L309,185.33l18.18-47.22-42.19,38.24-.31-32.15-26.08.26.37,38.92-49.2-31.58,17.19,35.33,32.24,21,.51,52.55,0,3.16-46.92-30.53-4-31.14L179.49,160.9,188,217.21l-26.95-17.53-14.22,21.87,32.63,21.22-53.53,23.52,38.94,5.23,35.34-15.24,44.06,28.65,6.07,3.95L199,330.14l-29.95-12.46-53.23,11.46L173,351.08,156,364.83l16.35,20.31,22.16-17.82,9,44.15,19.64-42-2.83-23,39.91-32.11.58,61.67-28.34,15.79-24,48.89,52.64-31.29.21,21.92,26.07-.25-.26-28.44L327.36,423l-20.79-41.43-19.78-12-.52-54.64,0-2.69L341,347.86l-2.52,32.34,27.46,47L369,366.06,387.38,378l14.21-21.86-23.83-15.51,39.15-22.31Zm-15.08-74.56v0h0ZM285.68,196l0,0h0ZM204.83,227.5h0Z" transform="translate(-114.11 -136.33)"/><line class="cls-2" x1="235.76" y1="108.77" x2="235.78" y2="108.76"/></svg>