<svg id="Layer_1" data-name="Layer 1" xmlns="http://www.w3.org/2000/svg" viewBox="0 0 84.72 256.55"><defs><style>.cls-1{fill:#fff;}.cls-1,.cls-3{stroke:#e9ff2e;stroke-miterlimit:10;}.cls-2{fill:#e9ff2e;}.cls-3{fill:none;}</style></defs><title>yellow-balloon</title><path class="cls-1" d="M141.79,108.69l6.36,11.18H128.7l6.36-11.17c-21.55-2-38.5-23.28-38.5-49.21,0-27.26,18.74-49.36,41.86-49.36s41.86,22.1,41.86,49.36C180.28,85.41,163.33,106.67,141.79,108.69Z" transform="translate(-96.06 -9.63)"/><path class="cls-2" d="M138.23,120c-2.25,4.92-4.62,10.21-3.93,15.76.81,6.53,6.08,11.22,6.25,18,.34,13.26-9.87,24.33-8.69,37.76.51,5.88,2.68,11.5,3.6,17.31,1.23,7.85,1.43,16.32-.41,24.09-3.23,13.64-14.8,21-23.8,30.68-1.32,1.41.8,3.53,2.12,2.12,7.9-8.48,18.2-15.27,22.75-26.34,4.91-11.93,3.76-26.16.76-38.41-1.85-7.56-2.8-13.89-.43-21.48,2-6.26,5-12.16,6.36-18.61,1.12-5.42,1-10.78-1.35-15.86-1.72-3.74-4.22-6.81-4.29-11.17s1.91-8.55,3.65-12.37c.8-1.74-1.79-3.27-2.59-1.51Z" transform="translate(-96.06 -9.63)"/><path class="cls-3" d="M112.28,36.82c8.39-15.18,22.12-20.76,21.55-21.63s-17.9,4.18-25.89,19c-7.08,13.13-3.81,28.14-2.69,28.22S104.93,50.12,112.28,36.82Z" transform="translate(-96.06 -9.63)"/></svg>